# Blender 5.2.0 LTS
# www.blender.org
mtllib ArkZ_Logo.mtl
o ArkZLogo
v -1.213406 -0.124999 -0.269591
v -1.743632 -0.124999 -0.269594
v -1.213406 0.102318 -0.269591
v -1.743632 0.102318 -0.269594
v -1.276234 -0.124999 -0.446514
v -1.276234 0.102318 -0.446514
v -2.105817 -0.124999 -0.446517
v -2.105817 0.102318 -0.446517
v -1.748623 -0.124999 -0.803710
v -1.748623 0.102318 -0.803710
v -1.570026 0.102318 -0.803710
v -1.570026 -0.124999 -0.803710
v -1.596181 0.102318 -0.823780
v -1.596181 -0.124999 -0.823780
v -1.626639 0.102318 -0.836396
v -1.626639 -0.124999 -0.836396
v -1.659325 0.102318 -0.840699
v -1.659325 -0.124999 -0.840699
v -1.692010 0.102318 -0.836396
v -1.692010 -0.124999 -0.836396
v -1.722468 0.102318 -0.823780
v -1.722468 -0.124999 -0.823780
v -0.855641 -0.124999 -0.089322
v -0.855641 0.102318 -0.089322
v -0.855641 0.102318 0.089275
v -0.855641 -0.124999 0.089275
v -0.835571 0.102318 0.063120
v -0.835571 -0.124999 0.063120
v -0.822955 0.102318 0.032662
v -0.822955 -0.124999 0.032662
v -0.818652 0.102318 -0.000024
v -0.818652 -0.124999 -0.000024
v -0.822955 0.102318 -0.032709
v -0.822955 -0.124999 -0.032709
v -0.835571 0.102318 -0.063167
v -0.835571 -0.124999 -0.063167
v -1.212834 -0.124999 0.446468
v -1.212834 0.102318 0.446468
v -2.463011 -0.124999 0.089273
v -1.748625 -0.124999 0.803662
v -2.463011 0.102318 0.089273
v -1.748625 0.102318 0.803662
v -2.463010 0.102318 -0.089323
v -2.463010 -0.124999 -0.089323
v -2.483080 0.102318 -0.063168
v -2.483080 -0.124999 -0.063168
v -2.495696 0.102318 -0.032710
v -2.495696 -0.124999 -0.032710
v -2.499999 0.102318 -0.000025
v -2.499999 -0.124999 -0.000025
v -2.495696 0.102318 0.032660
v -2.495696 -0.124999 0.032660
v -2.483080 0.102318 0.063118
v -2.483080 -0.124999 0.063118
v -1.575736 -0.124999 0.269545
v -1.575736 0.102318 0.269545
v -2.105817 -0.124999 0.269545
v -2.105817 0.102318 0.269545
v -2.042418 -0.124999 0.446468
v -2.042418 0.102318 0.446468
v -1.570028 -0.124999 0.803662
v -1.570028 0.102318 0.803662
v -1.722470 0.102318 0.823731
v -1.722470 -0.124999 0.823731
v -1.692012 0.102318 0.836347
v -1.692012 -0.124999 0.836347
v -1.659326 0.102318 0.840650
v -1.659326 -0.124999 0.840650
v -1.626641 0.102318 0.836347
v -1.626641 -0.124999 0.836347
v -1.596183 0.102318 0.823731
v -1.596183 -0.124999 0.823731
v 1.412146 -0.124999 -0.527938
v 1.396324 -0.124999 -0.531532
v 1.412146 0.102318 -0.527938
v 1.396324 0.102318 -0.531532
v 1.383203 -0.124999 -0.542313
v 1.383203 0.102318 -0.542313
v 1.374376 -0.124999 -0.558545
v 1.374376 0.102318 -0.558545
v 1.371433 -0.124999 -0.578491
v 1.371433 0.102318 -0.578491
v 1.374014 -0.124999 -0.597232
v 1.374014 0.102318 -0.597232
v 1.381756 -0.124999 -0.612547
v 1.381756 0.102318 -0.612547
v 1.393213 -0.124999 -0.622750
v 1.393213 0.102318 -0.622750
v 1.406936 -0.124999 -0.626150
v 1.406936 0.102318 -0.626150
v 1.419189 -0.124999 -0.622967
v 1.419189 0.102318 -0.622967
v 1.432213 -0.124999 -0.613223
v 1.432213 0.102318 -0.613223
v 1.432213 -0.124999 -0.533726
v 1.432213 0.102318 -0.533726
v 1.421890 -0.124999 -0.529289
v 1.421890 0.102318 -0.529289
v 1.492800 -0.124999 -0.489540
v 1.492800 0.102318 -0.489540
v 1.492800 0.102318 -0.598172
v 1.441089 -0.124999 -0.491470
v 1.441089 0.102318 -0.491470
v 1.419285 -0.124999 -0.483752
v 1.419285 0.102318 -0.483752
v 1.400376 -0.124999 -0.481244
v 1.400376 0.102318 -0.481244
v 1.381636 -0.124999 -0.482956
v 1.381636 0.102318 -0.482956
v 1.364583 -0.124999 -0.488093
v 1.364583 0.102318 -0.488093
v 1.349220 -0.124999 -0.496656
v 1.349220 0.102318 -0.496656
v 1.335544 -0.124999 -0.508643
v 1.335544 0.102318 -0.508643
v 1.324317 -0.124999 -0.523259
v 1.324317 0.102318 -0.523259
v 1.316297 -0.124999 -0.539708
v 1.316297 0.102318 -0.539708
v 1.311486 -0.124999 -0.557990
v 1.311486 0.102318 -0.557990
v 1.309882 -0.124999 -0.578105
v 1.309882 0.102318 -0.578105
v 1.311311 -0.124999 -0.597256
v 1.311311 0.102318 -0.597256
v 1.315598 -0.124999 -0.614766
v 1.315598 0.102318 -0.614766
v 1.322743 -0.124999 -0.630637
v 1.322743 0.102318 -0.630637
v 1.332747 -0.124999 -0.644867
v 1.332747 0.102318 -0.644867
v 1.344848 -0.124999 -0.656601
v 1.344848 0.102318 -0.656601
v 1.358288 -0.124999 -0.664982
v 1.358288 0.102318 -0.664982
v 1.373067 -0.124999 -0.670011
v 1.373067 0.102318 -0.670011
v 1.389185 -0.124999 -0.671687
v 1.389185 0.102318 -0.671687
v 1.412050 -0.124999 -0.667635
v 1.412050 0.102318 -0.667635
v 1.434335 -0.124999 -0.655093
v 1.434335 0.102318 -0.655093
v 1.439738 -0.124999 -0.671687
v 1.439738 0.102318 -0.671687
v 1.495887 -0.124999 -0.656251
v 1.495887 0.102318 -0.656251
v 1.493572 -0.124999 -0.632518
v 1.493572 0.102318 -0.632518
v 0.818626 -0.124999 -0.535270
v 0.818626 0.102318 -0.535270
v 0.819929 -0.124999 -0.631722
v 0.819929 0.102318 -0.631722
v 0.823836 -0.124999 -0.648822
v 0.823836 0.102318 -0.648822
v 0.830975 -0.124999 -0.659555
v 0.830975 0.102318 -0.659555
v 0.841973 -0.124999 -0.667249
v 0.841973 0.102318 -0.667249
v 0.910664 -0.124999 -0.662618
v 0.910664 0.102318 -0.662618
v 0.895903 -0.124999 -0.653332
v 0.895903 0.102318 -0.653332
v 0.886738 -0.124999 -0.643227
v 0.886738 0.102318 -0.643227
v 0.881963 -0.124999 -0.629455
v 0.881963 0.102318 -0.629455
v 0.880371 -0.124999 -0.535270
v 0.880371 0.102318 -0.535270
v 0.921469 -0.124999 -0.535270
v 0.921469 0.102318 -0.535270
v 0.921469 -0.124999 -0.489540
v 0.921469 0.102318 -0.489540
v 0.880371 -0.124999 -0.489540
v 0.880371 0.102318 -0.489540
v 0.880371 -0.124999 -0.429147
v 0.880371 0.102318 -0.429147
v 0.818626 -0.124999 -0.437443
v 0.818626 0.102318 -0.437443
v 0.818626 -0.124999 -0.489540
v 0.818626 0.102318 -0.489540
v 0.793350 -0.124999 -0.489540
v 0.793350 0.102318 -0.489540
v 0.793350 -0.124999 -0.535270
v 0.793350 0.102318 -0.535270
v 0.473628 -0.124999 -0.535270
v 0.473628 0.102318 -0.535270
v 0.474931 -0.124999 -0.631722
v 0.474931 0.102318 -0.631722
v 0.478838 -0.124999 -0.648822
v 0.478838 0.102318 -0.648822
v 0.485977 -0.124999 -0.659555
v 0.485977 0.102318 -0.659555
v 0.496975 -0.124999 -0.667249
v 0.496975 0.102318 -0.667249
v 0.565666 -0.124999 -0.662618
v 0.565666 0.102318 -0.662618
v 0.550905 -0.124999 -0.653332
v 0.550905 0.102318 -0.653332
v 0.541740 -0.124999 -0.643227
v 0.541740 0.102318 -0.643227
v 0.536965 -0.124999 -0.629455
v 0.536965 0.102318 -0.629455
v 0.535373 -0.124999 -0.535270
v 0.535373 0.102318 -0.535270
v 0.576472 -0.124999 -0.535270
v 0.576472 0.102318 -0.535270
v 0.576472 -0.124999 -0.489540
v 0.576472 0.102318 -0.489540
v 0.535373 -0.124999 -0.489540
v 0.535373 0.102318 -0.489540
v 0.535373 -0.124999 -0.429147
v 0.535373 0.102318 -0.429147
v 0.473628 -0.124999 -0.437443
v 0.473628 0.102318 -0.437443
v 0.473628 -0.124999 -0.489540
v 0.473628 0.102318 -0.489540
v 0.448352 -0.124999 -0.489540
v 0.448352 0.102318 -0.489540
v 0.448352 -0.124999 -0.535270
v 0.448352 0.102318 -0.535270
v 0.253277 -0.124999 -0.489540
v 0.313285 -0.124999 -0.489540
v 0.253277 0.102318 -0.489540
v 0.313285 0.102318 -0.489540
v 0.253277 -0.124999 -0.578877
v 0.253277 0.102318 -0.578877
v 0.251155 -0.124999 -0.596605
v 0.251155 0.102318 -0.596605
v 0.244787 -0.124999 -0.609653
v 0.244787 0.102318 -0.609653
v 0.234464 -0.124999 -0.617685
v 0.234464 0.102318 -0.617685
v 0.220475 -0.124999 -0.620362
v 0.220475 0.102318 -0.620362
v 0.210828 -0.124999 -0.618601
v 0.210828 0.102318 -0.618601
v 0.203882 -0.124999 -0.613319
v 0.203882 0.102318 -0.613319
v 0.199685 -0.124999 -0.604612
v 0.199685 0.102318 -0.604612
v 0.198286 -0.124999 -0.592577
v 0.198286 0.102318 -0.592577
v 0.198286 -0.124999 -0.489540
v 0.198286 0.102318 -0.489540
v 0.137892 -0.124999 -0.489540
v 0.137892 0.102318 -0.489540
v 0.137892 -0.124999 -0.609557
v 0.137892 0.102318 -0.609557
v 0.141486 -0.124999 -0.636377
v 0.141486 0.102318 -0.636377
v 0.145978 -0.124999 -0.647037
v 0.145978 0.102318 -0.647037
v 0.152267 -0.124999 -0.655865
v 0.152267 0.102318 -0.655865
v 0.160280 -0.124999 -0.662787
v 0.160280 0.102318 -0.662787
v 0.169946 -0.124999 -0.667732
v 0.169946 0.102318 -0.667732
v 0.194234 -0.124999 -0.671687
v 0.194234 0.102318 -0.671687
v 0.211841 -0.124999 -0.669613
v 0.211841 0.102318 -0.669613
v 0.228001 -0.124999 -0.663390
v 0.228001 0.102318 -0.663390
v 0.243099 -0.124999 -0.652826
v 0.243099 0.102318 -0.652826
v 0.257522 -0.124999 -0.637727
v 0.257522 0.102318 -0.637727
v 0.257522 -0.124999 -0.671687
v 0.257522 0.102318 -0.671687
v 0.313285 -0.124999 -0.663390
v 0.313285 0.102318 -0.663390
v 1.276380 -0.124999 -0.485447
v 1.276380 0.102318 -0.485447
v 1.269172 -0.124999 -0.486314
v 1.269172 0.102318 -0.486314
v 1.262086 -0.124999 -0.487885
v 1.262086 0.102318 -0.487885
v 1.255230 -0.124999 -0.490268
v 1.255230 0.102318 -0.490268
v 1.248755 -0.124999 -0.493542
v 1.248755 0.102318 -0.493542
v 1.242799 -0.124999 -0.497687
v 1.242799 0.102318 -0.497687
v 1.237411 -0.124999 -0.502551
v 1.237411 0.102318 -0.502551
v 1.232591 -0.124999 -0.507978
v 1.232591 0.102318 -0.507978
v 1.224495 -0.124999 -0.520018
v 1.224495 0.102318 -0.520018
v 1.223375 -0.124999 -0.489526
v 1.223375 0.102318 -0.489526
v 1.166738 -0.124999 -0.489526
v 1.166738 0.102318 -0.489526
v 1.166738 -0.124999 -0.663390
v 1.166738 0.102318 -0.663390
v 1.227590 -0.124999 -0.663390
v 1.227590 0.102318 -0.663390
v 1.227827 -0.124999 -0.580313
v 1.227827 0.102318 -0.580313
v 1.228682 -0.124999 -0.573085
v 1.228682 0.102318 -0.573085
v 1.230499 -0.124999 -0.566044
v 1.230499 0.102318 -0.566044
v 1.233912 -0.124999 -0.559647
v 1.233912 0.102318 -0.559647
v 1.239566 -0.124999 -0.555164
v 1.239566 0.102318 -0.555164
v 1.246411 -0.124999 -0.552719
v 1.246411 0.102318 -0.552719
v 1.260787 -0.124999 -0.550507
v 1.260787 0.102318 -0.550507
v 1.288443 -0.124999 -0.549983
v 1.288443 0.102318 -0.549983
v 1.288443 -0.124999 -0.485180
v 1.288443 0.102318 -0.485180
v -0.122112 -0.124999 -0.485447
v -0.122112 0.102318 -0.485447
v -0.129319 -0.124999 -0.486314
v -0.129319 0.102318 -0.486314
v -0.136406 -0.124999 -0.487885
v -0.136406 0.102318 -0.487885
v -0.143261 -0.124999 -0.490268
v -0.143261 0.102318 -0.490268
v -0.149737 -0.124999 -0.493542
v -0.149737 0.102318 -0.493542
v -0.155693 -0.124999 -0.497687
v -0.155693 0.102318 -0.497687
v -0.161080 -0.124999 -0.502551
v -0.161080 0.102318 -0.502551
v -0.165900 -0.124999 -0.507978
v -0.165900 0.102318 -0.507978
v -0.173997 -0.124999 -0.520018
v -0.173997 0.102318 -0.520018
v -0.175116 -0.124999 -0.489526
v -0.175116 0.102318 -0.489526
v -0.231754 -0.124999 -0.489526
v -0.231754 0.102318 -0.489526
v -0.231754 -0.124999 -0.663390
v -0.231754 0.102318 -0.663390
v -0.170902 -0.124999 -0.663390
v -0.170902 0.102318 -0.663390
v -0.170665 -0.124999 -0.580313
v -0.170665 0.102318 -0.580313
v -0.169810 -0.124999 -0.573085
v -0.169810 0.102318 -0.573085
v -0.167993 -0.124999 -0.566044
v -0.167993 0.102318 -0.566044
v -0.164579 -0.124999 -0.559647
v -0.164579 0.102318 -0.559647
v -0.158926 -0.124999 -0.555164
v -0.158926 0.102318 -0.555164
v -0.152081 -0.124999 -0.552719
v -0.152081 0.102318 -0.552719
v -0.137705 -0.124999 -0.550507
v -0.137705 0.102318 -0.550507
v -0.110049 -0.124999 -0.549983
v -0.110049 0.102318 -0.549983
v -0.110049 -0.124999 -0.485180
v -0.110049 0.102318 -0.485180
v 0.814821 -0.124999 0.302763
v 0.814821 0.102318 0.302763
v 0.791092 -0.124999 0.299911
v 0.791092 0.102318 0.299911
v 0.767762 -0.124999 0.294737
v 0.767762 0.102318 0.294737
v 0.745194 -0.124999 0.286892
v 0.745194 0.102318 0.286892
v 0.723876 -0.124999 0.276114
v 0.723876 0.102318 0.276114
v 0.704267 -0.124999 0.262469
v 0.704267 0.102318 0.262469
v 0.686532 -0.124999 0.246457
v 0.686532 0.102318 0.246457
v 0.670663 -0.124999 0.228589
v 0.670663 0.102318 0.228589
v 0.644009 -0.124999 0.188953
v 0.644009 0.102318 0.188953
v 0.640323 -0.124999 0.289335
v 0.640323 0.102318 0.289335
v 0.453868 -0.124999 0.289335
v 0.453868 0.102318 0.289335
v 0.453868 -0.124999 -0.283044
v 0.453868 0.102318 -0.283044
v 0.654199 -0.124999 -0.283044
v 0.654199 0.102318 -0.283044
v 0.654979 -0.124999 -0.009546
v 0.654979 0.102318 -0.009546
v 0.657792 -0.124999 0.014250
v 0.657792 0.102318 0.014250
v 0.663774 -0.124999 0.037431
v 0.663774 0.102318 0.037431
v 0.675013 -0.124999 0.058491
v 0.675013 0.102318 0.058491
v 0.693623 -0.124999 0.073247
v 0.693623 0.102318 0.073247
v 0.716158 -0.124999 0.081297
v 0.716158 0.102318 0.081297
v 0.763486 -0.124999 0.088580
v 0.763486 0.102318 0.088580
v 0.787418 -0.124999 0.089915
v 0.787418 0.102318 0.089915
v 0.811385 -0.124999 0.090304
v 0.811385 0.102318 0.090304
v 0.854533 -0.124999 0.090304
v 0.854533 0.102318 0.090304
v 0.854533 -0.124999 0.303642
v 0.854533 0.102318 0.303642
v 1.550375 -0.124999 0.101189
v 1.617795 -0.124999 0.289335
v 1.550375 0.102318 0.101189
v 1.617795 0.102318 0.289335
v 2.114080 -0.124999 0.101189
v 2.114080 0.102318 0.101189
v 1.550375 -0.124999 -0.660294
v 1.550375 0.102318 -0.660294
v 2.432580 -0.124999 -0.660291
v 2.432580 0.102318 -0.660291
v 2.499393 -0.124999 -0.472145
v 2.499393 0.102318 -0.472145
v 1.935534 -0.124999 -0.472148
v 1.935534 0.102318 -0.472148
v 2.500001 -0.124999 0.289335
v 2.500001 0.102318 0.289335
v 0.960120 -0.124999 -0.283044
v 0.960120 -0.124999 0.623656
v 0.960120 0.102318 -0.283044
v 0.960120 0.102318 0.623656
v 1.152648 -0.124999 -0.283044
v 1.152648 0.102318 -0.283044
v 1.152648 -0.124999 0.021355
v 1.152648 0.102318 0.021355
v 1.363384 -0.124999 -0.283044
v 1.363384 0.102318 -0.283044
v 1.583232 -0.124999 -0.283044
v 1.583232 0.102318 -0.283044
v 1.337587 -0.124999 0.044771
v 1.337587 0.102318 0.044771
v 1.536399 -0.124999 0.289335
v 1.536399 0.102318 0.289335
v 1.328045 -0.124999 0.289335
v 1.328045 0.102318 0.289335
v 1.152648 -0.124999 0.053662
v 1.152648 0.102318 0.053662
v 1.152648 -0.124999 0.650976
v 1.152648 0.102318 0.650976
v 0.055802 -0.124999 0.009648
v -0.063658 -0.124999 0.298007
v 0.055802 0.102318 0.009648
v -0.063658 0.102318 0.298007
v -0.186158 -0.124999 0.009648
v -0.186158 0.102318 0.009648
v -0.530887 -0.124999 -0.283044
v -0.061056 -0.124999 0.666585
v -0.530887 0.102318 -0.283044
v -0.061056 0.102318 0.666585
v -0.309523 -0.124999 -0.283044
v -0.309523 0.102318 -0.283044
v -0.249897 -0.124999 -0.149057
v -0.249897 0.102318 -0.149057
v 0.123883 -0.124999 -0.149057
v 0.123883 0.102318 -0.149057
v 0.182206 -0.124999 -0.283044
v 0.182206 0.102318 -0.283044
v 0.412239 -0.124999 -0.283044
v 0.412239 0.102318 -0.283044
v -0.047181 -0.124999 0.666585
v -0.047181 0.102318 0.666585
v -0.352669 -0.124999 -0.574483
v -0.388955 -0.124999 -0.486892
v -0.352669 0.102318 -0.574483
v -0.388955 0.102318 -0.486892
v -0.426165 -0.124999 -0.574483
v -0.426165 0.102318 -0.574483
v -0.530879 -0.124999 -0.663390
v -0.388165 -0.124999 -0.374934
v -0.530879 0.102318 -0.663390
v -0.388165 0.102318 -0.374934
v -0.463638 -0.124999 -0.663390
v -0.463638 0.102318 -0.663390
v -0.445527 -0.124999 -0.622691
v -0.445527 0.102318 -0.622691
v -0.331989 -0.124999 -0.622691
v -0.331989 0.102318 -0.622691
v -0.314272 -0.124999 -0.663390
v -0.314272 0.102318 -0.663390
v -0.244399 -0.124999 -0.663390
v -0.244399 0.102318 -0.663390
v -0.383950 -0.124999 -0.374934
v -0.383950 0.102318 -0.374934
v 0.013631 -0.124999 -0.527938
v -0.002312 -0.124999 -0.531507
v 0.013631 0.102318 -0.527938
v -0.002312 0.102318 -0.531507
v -0.015408 -0.124999 -0.542216
v -0.015408 0.102318 -0.542216
v -0.024163 -0.124999 -0.558424
v -0.024163 0.102318 -0.558424
v -0.027082 -0.124999 -0.578491
v -0.027082 0.102318 -0.578491
v -0.024501 -0.124999 -0.597232
v -0.024501 0.102318 -0.597232
v -0.016759 -0.124999 -0.612547
v -0.016759 0.102318 -0.612547
v -0.005302 -0.124999 -0.622750
v -0.005302 0.102318 -0.622750
v 0.008421 -0.124999 -0.626150
v 0.008421 0.102318 -0.626150
v 0.018841 -0.124999 -0.624510
v 0.018841 0.102318 -0.624510
v 0.033698 -0.124999 -0.618432
v 0.033698 0.102318 -0.618432
v 0.033698 -0.124999 -0.531025
v 0.033698 0.102318 -0.531025
v 0.022989 -0.124999 -0.528710
v 0.022989 0.102318 -0.528710
v 0.094285 -0.124999 -0.489540
v 0.094285 -0.124999 -0.739220
v 0.094285 0.102318 -0.489540
v 0.094285 0.102318 -0.739220
v 0.042574 -0.124999 -0.489540
v 0.042574 0.102318 -0.489540
v 0.019613 -0.124999 -0.484717
v 0.019613 0.102318 -0.484717
v 0.000510 -0.124999 -0.483173
v 0.000510 0.102318 -0.483173
v -0.018827 -0.124999 -0.484867
v -0.018827 0.102318 -0.484867
v -0.036126 -0.124999 -0.489951
v -0.036126 0.102318 -0.489951
v -0.051388 -0.124999 -0.498422
v -0.051388 0.102318 -0.498422
v -0.064611 -0.124999 -0.510283
v -0.064611 0.102318 -0.510283
v -0.075289 -0.124999 -0.524977
v -0.075289 0.102318 -0.524977
v -0.082917 -0.124999 -0.541951
v -0.082917 0.102318 -0.541951
v -0.087494 -0.124999 -0.561204
v -0.087494 0.102318 -0.561204
v -0.089019 -0.124999 -0.582736
v -0.089019 0.102318 -0.582736
v -0.087663 -0.124999 -0.601977
v -0.087663 0.102318 -0.601977
v -0.083593 -0.124999 -0.619180
v -0.083593 0.102318 -0.619180
v -0.076809 -0.124999 -0.634345
v -0.076809 0.102318 -0.634345
v -0.067312 -0.124999 -0.647472
v -0.067312 0.102318 -0.647472
v -0.055548 -0.124999 -0.658066
v -0.055548 0.102318 -0.658066
v -0.041963 -0.124999 -0.665633
v -0.041963 0.102318 -0.665633
v -0.026557 -0.124999 -0.670174
v -0.026557 0.102318 -0.670174
v -0.009330 -0.124999 -0.671687
v -0.009330 0.102318 -0.671687
v 0.011219 -0.124999 -0.668793
v 0.011219 0.102318 -0.668793
v 0.033698 -0.124999 -0.660303
v 0.033698 0.102318 -0.660303
v 0.033698 -0.124999 -0.747517
v 0.033698 0.102318 -0.747517
v 0.418251 -0.124999 -0.663390
v 0.357085 -0.124999 -0.663390
v 0.418251 0.102318 -0.663390
v 0.357085 0.102318 -0.663390
v 0.418251 -0.124999 -0.481244
v 0.418251 0.102318 -0.481244
v 0.357085 -0.124999 -0.489540
v 0.357085 0.102318 -0.489540
v 0.725816 -0.124999 -0.555144
v 0.723404 -0.124999 -0.542675
v 0.725816 0.102318 -0.555144
v 0.723404 0.102318 -0.542675
v 0.716169 -0.124999 -0.532665
v 0.716169 0.102318 -0.532665
v 0.705267 -0.124999 -0.526081
v 0.705267 0.102318 -0.526081
v 0.691857 -0.124999 -0.523886
v 0.691857 0.102318 -0.523886
v 0.676807 -0.124999 -0.526274
v 0.676807 0.102318 -0.526274
v 0.664458 -0.124999 -0.533437
v 0.664458 0.102318 -0.533437
v 0.655437 -0.124999 -0.544894
v 0.655437 0.102318 -0.544894
v 0.650372 -0.124999 -0.560161
v 0.650372 0.102318 -0.560161
v 0.725816 -0.124999 -0.557845
v 0.725816 0.102318 -0.557845
v 0.765757 -0.124999 -0.601260
v 0.759004 -0.124999 -0.654707
v 0.765757 0.102318 -0.601260
v 0.759004 0.102318 -0.654707
v 0.746920 -0.124999 -0.611920
v 0.746920 0.102318 -0.611920
v 0.729000 -0.124999 -0.619590
v 0.729000 0.102318 -0.619590
v 0.712334 -0.124999 -0.624221
v 0.712334 0.102318 -0.624221
v 0.697259 -0.124999 -0.625764
v 0.697259 0.102318 -0.625764
v 0.678736 -0.124999 -0.623039
v 0.678736 0.102318 -0.623039
v 0.663686 -0.124999 -0.614863
v 0.663686 0.102318 -0.614863
v 0.653363 -0.124999 -0.602297
v 0.653363 0.102318 -0.602297
v 0.649022 -0.124999 -0.586402
v 0.649022 0.102318 -0.586402
v 0.767687 -0.124999 -0.583122
v 0.767687 0.102318 -0.583122
v 0.773090 -0.124999 -0.575211
v 0.773090 0.102318 -0.575211
v 0.773283 -0.124999 -0.574053
v 0.773283 0.102318 -0.574053
v 0.774054 -0.124999 -0.557460
v 0.774054 0.102318 -0.557460
v 0.772625 -0.124999 -0.541451
v 0.772625 0.102318 -0.541451
v 0.768338 -0.124999 -0.526997
v 0.768338 0.102318 -0.526997
v 0.761193 -0.124999 -0.514100
v 0.761193 0.102318 -0.514100
v 0.751189 -0.124999 -0.502758
v 0.751189 0.102318 -0.502758
v 0.738955 -0.124999 -0.493514
v 0.738955 0.102318 -0.493514
v 0.725117 -0.124999 -0.486912
v 0.725117 0.102318 -0.486912
v 0.709675 -0.124999 -0.482950
v 0.709675 0.102318 -0.482950
v 0.692629 -0.124999 -0.481629
v 0.692629 0.102318 -0.481629
v 0.672574 -0.124999 -0.483432
v 0.672574 0.102318 -0.483432
v 0.654087 -0.124999 -0.488841
v 0.654087 0.102318 -0.488841
v 0.637167 -0.124999 -0.497855
v 0.637167 0.102318 -0.497855
v 0.621815 -0.124999 -0.510476
v 0.621815 0.102318 -0.510476
v 0.609068 -0.124999 -0.525713
v 0.609068 0.102318 -0.525713
v 0.599963 -0.124999 -0.542578
v 0.599963 0.102318 -0.542578
v 0.594501 -0.124999 -0.561071
v 0.594501 0.102318 -0.561071
v 0.592680 -0.124999 -0.581193
v 0.592680 0.102318 -0.581193
v 0.594344 -0.124999 -0.600313
v 0.594344 0.102318 -0.600313
v 0.599336 -0.124999 -0.617540
v 0.599336 0.102318 -0.617540
v 0.607657 -0.124999 -0.632874
v 0.607657 0.102318 -0.632874
v 0.619307 -0.124999 -0.646314
v 0.619307 0.102318 -0.646314
v 0.633670 -0.124999 -0.657246
v 0.633670 0.102318 -0.657246
v 0.650131 -0.124999 -0.665054
v 0.650131 0.102318 -0.665054
v 0.668690 -0.124999 -0.669739
v 0.668690 0.102318 -0.669739
v 0.689348 -0.124999 -0.671301
v 0.689348 0.102318 -0.671301
v 0.724080 -0.124999 -0.667249
v 0.724080 0.102318 -0.667249
v 1.061360 -0.124999 -0.489540
v 1.121368 -0.124999 -0.489540
v 1.061360 0.102318 -0.489540
v 1.121368 0.102318 -0.489540
v 1.061360 -0.124999 -0.578877
v 1.061360 0.102318 -0.578877
v 1.059237 -0.124999 -0.596605
v 1.059237 0.102318 -0.596605
v 1.052870 -0.124999 -0.609653
v 1.052870 0.102318 -0.609653
v 1.042547 -0.124999 -0.617685
v 1.042547 0.102318 -0.617685
v 1.028558 -0.124999 -0.620362
v 1.028558 0.102318 -0.620362
v 1.018910 -0.124999 -0.618601
v 1.018910 0.102318 -0.618601
v 1.011964 -0.124999 -0.613319
v 1.011964 0.102318 -0.613319
v 1.007767 -0.124999 -0.604612
v 1.007767 0.102318 -0.604612
v 1.006368 -0.124999 -0.592577
v 1.006368 0.102318 -0.592577
v 1.006368 -0.124999 -0.489540
v 1.006368 0.102318 -0.489540
v 0.945974 -0.124999 -0.489540
v 0.945974 0.102318 -0.489540
v 0.945974 -0.124999 -0.609557
v 0.945974 0.102318 -0.609557
v 0.949568 -0.124999 -0.636377
v 0.949568 0.102318 -0.636377
v 0.954060 -0.124999 -0.647037
v 0.954060 0.102318 -0.647037
v 0.960349 -0.124999 -0.655865
v 0.960349 0.102318 -0.655865
v 0.968363 -0.124999 -0.662787
v 0.968363 0.102318 -0.662787
v 0.978029 -0.124999 -0.667732
v 0.978029 0.102318 -0.667732
v 1.002316 -0.124999 -0.671687
v 1.002316 0.102318 -0.671687
v 1.019923 -0.124999 -0.669613
v 1.019923 0.102318 -0.669613
v 1.036083 -0.124999 -0.663390
v 1.036083 0.102318 -0.663390
v 1.051181 -0.124999 -0.652826
v 1.051181 0.102318 -0.652826
v 1.065604 -0.124999 -0.637727
v 1.065604 0.102318 -0.637727
v 1.065604 -0.124999 -0.671687
v 1.065604 0.102318 -0.671687
v 1.121368 -0.124999 -0.663390
v 1.121368 0.102318 -0.663390
v 0.419592 0.102318 -0.416164
v 0.419592 -0.124999 -0.416164
v 0.420725 0.102318 -0.424769
v 0.420725 -0.124999 -0.424769
v 0.419592 0.102318 -0.433375
v 0.419592 -0.124999 -0.433375
v 0.416270 0.102318 -0.441394
v 0.416270 -0.124999 -0.441394
v 0.410987 0.102318 -0.448280
v 0.410987 -0.124999 -0.448280
v 0.404101 0.102318 -0.453564
v 0.404101 -0.124999 -0.453564
v 0.396082 0.102318 -0.456885
v 0.396082 -0.124999 -0.456885
v 0.387476 0.102318 -0.458018
v 0.387476 -0.124999 -0.458018
v 0.378871 0.102318 -0.456885
v 0.378871 -0.124999 -0.456885
v 0.370852 0.102318 -0.453564
v 0.370852 -0.124999 -0.453564
v 0.363966 0.102318 -0.448280
v 0.363966 -0.124999 -0.448280
v 0.358682 0.102318 -0.441394
v 0.358682 -0.124999 -0.441394
v 0.355361 0.102318 -0.433375
v 0.355361 -0.124999 -0.433375
v 0.354228 0.102318 -0.424769
v 0.354228 -0.124999 -0.424769
v 0.355361 0.102318 -0.416164
v 0.355361 -0.124999 -0.416164
v 0.358682 0.102318 -0.408145
v 0.358682 -0.124999 -0.408145
v 0.363966 0.102318 -0.401259
v 0.363966 -0.124999 -0.401259
v 0.370852 0.102318 -0.395975
v 0.370852 -0.124999 -0.395975
v 0.378871 0.102318 -0.392654
v 0.378871 -0.124999 -0.392654
v 0.387476 0.102318 -0.391521
v 0.387476 -0.124999 -0.391521
v 0.396082 0.102318 -0.392654
v 0.396082 -0.124999 -0.392654
v 0.404101 0.102318 -0.395975
v 0.404101 -0.124999 -0.395975
v 0.410987 0.102318 -0.401259
v 0.410987 -0.124999 -0.401259
v 0.416270 0.102318 -0.408145
v 0.416270 -0.124999 -0.408145
vn -1.0000 -0.0000 -0.0000
vn -0.0000 -0.0000 -1.0000
vn 0.7934 -0.0000 -0.6088
vn -0.2165 -0.0000 0.9763
vn 0.9999 -0.0000 0.0169
vn -0.0000 -1.0000 -0.0000
vn -0.2819 -0.0000 0.9594
vn 0.2405 -0.0000 0.9706
vn 0.1795 -0.0000 0.9838
vn 0.8003 -0.0000 0.5997
vn -0.6702 -0.0000 0.7422
vn -0.3283 -0.0000 0.9446
vn 0.3827 -0.0000 -0.9239
vn -0.1880 -0.0000 0.9822
vn -0.9911 -0.0000 -0.1328
vn -0.9590 -0.0000 0.2833
vn 0.9931 -0.0000 -0.1174
vn -0.0000 1.0000 -0.0000
vn -0.0221 -0.0000 0.9998
vn -0.8989 -0.0000 0.4382
vn 0.6088 -0.0000 -0.7934
vn 0.5733 -0.0000 -0.8194
vn 0.9491 -0.0000 -0.3149
vn -0.2515 -0.0000 0.9679
vn 0.8258 -0.0000 -0.5640
vn -0.8800 -0.0000 0.4751
vn -0.9914 -0.0000 -0.1305
vn 0.9989 -0.0000 -0.0465
vn 0.0772 -0.0000 0.9970
vn 0.9907 -0.0000 0.1364
vn 0.9960 -0.0000 0.0889
vn 0.6088 -0.0000 0.7934
vn 0.7071 -0.0000 0.7071
vn -0.2677 -0.0000 0.9635
vn 0.9993 -0.0000 0.0367
vn 0.9002 -0.0000 0.4355
vn 0.9204 -0.0000 -0.3910
vn 0.8785 -0.0000 -0.4778
vn 0.8925 -0.0000 0.4511
vn 0.7231 -0.0000 -0.6908
vn 0.8822 -0.0000 -0.4708
vn 0.6213 -0.0000 -0.7836
vn 0.7500 -0.0000 0.6615
vn -0.9959 -0.0000 0.0901
vn -0.8022 -0.0000 0.5970
vn -0.1332 -0.0000 0.9911
vn 0.1357 -0.0000 -0.9908
vn -0.0754 -0.0000 -0.9972
vn 0.1170 -0.0000 -0.9931
vn 0.9647 -0.0000 0.2635
vn -0.8987 -0.0000 0.4386
vn -0.0373 -0.0000 0.9993
vn 0.8034 -0.0000 -0.5955
vn -0.9914 -0.0000 0.1305
vn -0.9731 -0.0000 -0.2302
vn 0.7407 -0.0000 0.6718
vn 0.9448 -0.0000 0.3276
vn 1.0000 -0.0000 -0.0000
vn 0.7760 -0.0000 -0.6308
vn -0.8037 -0.0000 0.5950
vn -0.0000 -0.0000 1.0000
vn -0.1555 -0.0000 0.9878
vn -0.4554 -0.0000 -0.8903
vn 0.4904 -0.0000 -0.8715
vn 0.2056 -0.0000 0.9786
vn -0.8144 -0.0000 -0.5802
vn -0.8326 -0.0000 -0.5538
vn -0.5712 -0.0000 0.8208
vn -0.9118 -0.0000 -0.4105
vn -0.9929 -0.0000 0.1189
vn 0.9921 -0.0000 -0.1254
vn -0.6592 -0.0000 0.7520
vn 0.8798 -0.0000 -0.4753
vn 0.9914 -0.0000 0.1305
vn -0.7477 -0.0000 0.6640
vn 0.5325 -0.0000 0.8464
vn 0.9683 -0.0000 -0.2499
vn 0.8037 -0.0000 -0.5950
vn -0.6961 -0.0000 -0.7179
vn -0.1405 -0.0000 0.9901
vn 0.0189 -0.0000 -0.9998
vn -0.7934 -0.0000 -0.6088
vn 0.1305 -0.0000 -0.9914
vn -0.6692 -0.0000 -0.7431
vn -0.7557 -0.0000 -0.6550
vn 0.6053 -0.0000 0.7960
vn 0.3364 -0.0000 -0.9417
vn -0.1607 -0.0000 -0.9870
vn 0.9896 -0.0000 -0.1439
vn 0.1472 -0.0000 -0.9891
vn -0.5990 -0.0000 0.8007
vn 0.9008 -0.0000 0.4342
vn 0.4306 -0.0000 0.9025
vn 0.0276 -0.0000 -0.9996
vn -0.3221 -0.0000 -0.9467
vn 0.9587 -0.0000 0.2844
vn -0.9239 -0.0000 -0.3827
vn 0.7071 -0.0000 -0.7071
vn -0.1019 -0.0000 0.9948
vn -0.8963 -0.0000 0.4434
vn -0.9975 -0.0000 -0.0703
vn 0.1395 -0.0000 -0.9902
vn -0.9999 -0.0000 -0.0135
vn -0.9169 -0.0000 -0.3991
vn -0.6088 -0.0000 -0.7934
vn 0.2215 -0.0000 -0.9752
vn 0.9239 -0.0000 -0.3827
vn 0.1745 -0.0000 -0.9847
vn -0.9749 -0.0000 -0.2227
vn -0.9671 -0.0000 0.2545
vn -0.4702 -0.0000 0.8826
vn 1.0000 -0.0000 -0.0029
vn -0.8789 -0.0000 -0.4770
vn -0.9239 -0.0000 0.3827
vn -0.3827 -0.0000 0.9239
vn -0.7670 -0.0000 0.6416
vn -0.9423 -0.0000 0.3346
vn -0.8298 -0.0000 0.5580
vn 0.9914 -0.0000 -0.1305
vn -0.4512 -0.0000 0.8924
vn 0.3594 -0.0000 -0.9332
vn 0.2651 -0.0000 -0.9642
vn -0.3827 -0.0000 -0.9239
vn -0.8222 -0.0000 -0.5692
vn -0.9975 -0.0000 0.0707
vn -0.8034 -0.0000 0.5955
vn 0.7934 -0.0000 0.6088
vn 1.0000 0.0013 0.0054
vn -0.1193 -0.0000 0.9929
vn 0.9239 -0.0000 0.3827
vn -0.6088 -0.0000 0.7934
vn -0.1305 -0.0000 -0.9914
vn 0.1521 -0.0000 -0.9884
vn 0.6349 -0.0000 -0.7726
vn 0.7857 -0.0000 -0.6186
vn 0.9136 -0.0000 -0.4066
vn -0.0875 -0.0000 -0.9962
vn 0.1315 -0.0000 0.9913
vn 0.5018 -0.0000 -0.8650
vn -0.0822 -0.0000 -0.9966
vn -0.6701 -0.0000 0.7422
vn 0.0673 -0.0000 -0.9977
vn 0.6650 -0.0000 0.7468
vn -0.6537 -0.0000 -0.7568
vn 0.2185 -0.0000 -0.9758
vn -0.2448 -0.0000 -0.9696
vn 0.9893 -0.0000 -0.1459
vn -0.1615 -0.0000 -0.9869
vn -0.7071 -0.0000 0.7071
vn 0.9933 -0.0000 0.1154
vn -0.4866 -0.0000 -0.8736
vn -0.9121 -0.0000 0.4099
vn -0.7934 -0.0000 0.6088
vn -0.9729 -0.0000 0.2313
vn -0.2808 -0.0000 0.9598
vn -0.9968 -0.0000 0.0795
vn -0.3786 -0.0000 0.9255
vn 0.1456 -0.0000 0.9893
vn -0.8104 -0.0000 -0.5858
vn -0.8090 -0.0000 0.5879
vn -0.4925 -0.0000 0.8703
vn -0.6350 -0.0000 0.7725
vn -0.2113 -0.0000 -0.9774
vn -0.9818 -0.0000 -0.1899
vn -0.0873 -0.0000 0.9962
vn -0.9605 -0.0000 -0.2784
vn 0.6330 -0.0000 -0.7741
vn -0.6677 -0.0000 0.7444
vn -0.9509 -0.0000 -0.3096
vn -0.4853 -0.0000 0.8743
vn 0.9423 -0.0000 -0.3346
vn -0.3935 -0.0000 0.9193
vn 0.9953 -0.0000 0.0971
vn 0.3827 -0.0000 0.9239
vn -0.1344 -0.0000 0.9909
vn -0.7930 -0.0000 0.6092
vn -0.8181 -0.0000 -0.5751
vn -0.1034 -0.0000 -0.9946
vn 0.7727 -0.0000 0.6348
vn -0.9962 -0.0000 -0.0867
vn 0.1159 -0.0000 -0.9933
vn -0.5291 -0.0000 -0.8485
vn 0.3337 -0.0000 0.9427
vn -0.9128 -0.0000 -0.4083
vn -0.5170 -0.0000 -0.8560
vn 0.2485 -0.0000 0.9686
vn 0.1567 -0.0000 -0.9876
vn -0.4868 -0.0000 0.8735
vn 0.6028 -0.0000 0.7979
vn -0.1373 -0.0000 -0.9905
vn -0.7071 -0.0000 -0.7071
vn -0.9414 -0.0000 0.3373
vn 0.9864 -0.0000 -0.1643
vn -0.4286 -0.0000 -0.9035
vn 0.8747 -0.0000 0.4846
vn -0.5732 -0.0000 -0.8194
vn -0.9713 -0.0000 -0.2378
vn 0.9414 -0.0000 -0.3373
vn 0.1305 -0.0000 0.9914
vn -0.6141 -0.0000 0.7893
vn -0.9215 -0.0000 -0.3883
vn -0.1305 -0.0000 0.9914
vn -0.0910 -0.0000 0.9959
vn -0.9972 -0.0000 -0.0744
vn 0.0805 -0.0000 0.9968
vn -0.2885 -0.0000 0.9575
vn 0.3380 -0.0000 -0.9412
vn -0.0307 -0.0000 0.9995
vn -0.2827 -0.0000 -0.9592
vn 0.3533 -0.0000 -0.9355
vn 0.4774 -0.0000 0.8787
vn -0.8102 -0.0000 -0.5862
vn -0.6057 -0.0000 -0.7957
vn -0.0895 -0.0000 0.9960
vn -0.3950 -0.0000 -0.9187
s 0
usemtl Material.001
f 718//1 719//1 721//1 720//1
f 434//2 435//2 437//2 436//2
f 36//3 23//3 24//3 35//3
f 320//4 321//4 323//4 322//4
f 166//5 167//5 169//5 168//5
f 673//6 672//6 676//6 678//6 680//6 682//6 684//6 686//6 688//6 690//6 692//6 694//6 696//6 698//6 700//6 702//6 704//6 706//6 708//6 710//6 712//6 714//6 716//6 718//6 720//6 722//6
f 528//7 529//7 531//7 530//7
f 508//8 509//8 507//8 506//8
f 234//9 235//9 237//9 236//9
f 436//10 437//10 439//10 438//10
f 328//11 329//11 331//11 330//11
f 322//12 323//12 325//12 324//12
f 366//12 367//12 369//12 368//12
f 735//13 737//13 736//13 734//13
f 232//14 233//14 235//14 234//14
f 248//15 249//15 251//15 250//15
f 648//16 649//16 651//16 650//16
f 344//17 345//17 347//17 346//17
f 29//18 31//18 33//18 35//18 24//18 11//18 13//18 15//18 17//18 19//18 21//18 10//18 8//18 6//18 3//18 4//18 38//18 25//18 27//18
f 696//1 697//1 699//1 698//1
f 316//19 317//19 275//19 274//19
f 116//20 117//20 119//20 118//20
f 268//1 269//1 271//1 270//1
f 12//21 14//21 13//21 11//21
f 714//22 715//22 717//22 716//22
f 590//23 591//23 589//23 588//23
f 91//24 92//24 90//24 89//24
f 614//25 615//25 617//25 616//25
f 646//26 647//26 649//26 648//26
f 749//27 751//27 750//27 748//27
f 618//28 619//28 621//28 620//28
f 634//29 635//29 637//29 636//29
f 83//30 84//30 82//30 81//30
f 620//31 621//31 623//31 622//31
f 72//32 61//32 62//32 71//32
f 37//33 38//33 62//33 61//33
f 278//12 279//12 281//12 280//12
f 767//32 769//32 768//32 766//32
f 464//2 465//2 467//2 466//2
f 600//34 601//34 603//34 602//34
f 562//1 563//1 565//1 564//1
f 378//35 379//35 381//35 380//35
f 466//36 467//36 469//36 468//36
f 452//37 453//37 451//37 449//37
f 79//38 80//38 78//38 77//38
f 85//39 86//39 84//39 83//39
f 266//40 267//40 269//40 268//40
f 392//41 393//41 395//41 394//41
f 306//42 307//42 309//42 308//42
f 626//43 627//43 629//43 628//43
f 567//2 569//2 568//2 566//2
f 650//44 651//44 653//44 652//44
f 442//45 443//45 445//45 444//45
f 176//46 177//46 179//46 178//46
f 564//47 565//47 521//47 519//47
f 666//48 667//48 669//48 668//48
f 504//39 505//39 503//39 502//39
f 260//49 261//49 263//49 262//49
f 610//50 611//50 613//50 612//50
f 228//51 229//51 231//51 230//51
f 99//52 100//52 103//52 102//52
f 422//53 423//53 425//53 424//53
f 751//54 753//54 752//54 750//54
f 544//55 545//55 547//55 546//55
f 162//56 163//56 165//56 164//56
f 164//57 165//57 167//57 166//57
f 457//18 469//18 451//18 453//18 456//18
f 264//22 265//22 267//22 266//22
f 95//1 96//1 94//1 93//1
f 430//58 431//58 433//58 432//58
f 382//1 383//1 385//1 384//1
f 438//59 439//59 441//59 440//59
f 698//15 699//15 701//15 700//15
f 514//1 515//1 513//1 512//1
f 414//60 415//60 417//60 416//60
f 223//61 225//61 224//61 222//61
f 350//42 351//42 353//42 352//42
f 68//6 66//6 64//6 40//6 39//6 54//6 52//6 50//6 48//6 46//6 44//6 7//6 55//6 57//6 59//6 37//6 61//6 72//6 70//6
f 510//62 511//62 509//62 508//62
f 706//63 707//63 709//63 708//63
f 132//6 134//6 87//6 85//6 83//6 81//6 79//6 77//6 74//6 73//6 97//6 95//6 102//6 104//6 106//6 108//6 110//6 112//6 114//6 116//6 118//6 120//6 122//6 124//6 126//6 128//6 130//6
f 440//61 441//61 443//61 442//61
f 140//64 141//64 143//64 142//64
f 574//1 576//1 593//1 592//1
f 522//65 523//65 525//65 524//65
f 672//1 674//1 677//1 676//1
f 702//66 703//66 705//66 704//66
f 154//67 155//67 157//67 156//67
f 370//68 371//68 373//68 372//68
f 139//18 137//18 135//18 133//18 131//18 129//18 127//18 125//18 123//18 121//18 119//18 117//18 115//18 113//18 111//18 109//18 107//18 105//18 103//18 100//18 101//18 94//18 96//18 98//18 75//18 76//18 78//18 80//18 82//18 84//18 86//18 88//18 90//18 141//18
f 126//69 127//69 129//69 128//69
f 226//70 227//70 229//70 228//70
f 182//1 183//1 185//1 184//1
f 595//71 597//71 596//71 594//71
f 170//58 171//58 173//58 172//58
f 424//61 425//61 413//61 411//61
f 112//72 113//72 115//72 114//72
f 498//73 499//73 497//73 496//73
f 470//61 472//61 475//61 474//61
f 222//1 224//1 227//1 226//1
f 394//42 395//42 397//42 396//42
f 184//6 150//6 152//6 154//6 156//6 158//6 160//6 162//6 164//6 166//6 168//6 170//6 172//6 174//6 176//6 178//6 180//6 182//6
f 326//68 327//68 329//68 328//68
f 30//74 32//74 31//74 29//74
f 374//75 375//75 377//75 376//75
f 252//66 253//66 255//66 254//66
f 204//2 205//2 207//2 206//2
f 196//76 197//76 199//76 198//76
f 346//77 347//77 349//77 348//77
f 26//33 25//33 38//33 37//33
f 178//1 179//1 181//1 180//1
f 7//78 8//78 56//78 55//78
f 130//79 131//79 133//79 132//79
f 446//80 447//80 429//80 427//80
f 200//57 201//57 203//57 202//57
f 405//81 407//81 406//81 404//81 402//81 400//81 401//81 403//81
f 745//82 747//82 746//82 744//82
f 682//14 683//14 685//14 684//14
f 16//83 18//83 17//83 15//83
f 313//81 315//81 314//81 312//81
f 733//21 735//21 734//21 732//21
f 550//84 551//84 553//84 552//84
f 55//61 56//61 58//61 57//61
f 658//85 659//85 661//85 660//85
f 410//2 412//2 415//2 414//2
f 214//1 215//1 217//1 216//1
f 220//6 186//6 188//6 190//6 192//6 194//6 196//6 198//6 200//6 202//6 204//6 206//6 208//6 210//6 212//6 214//6 216//6 218//6
f 272//58 273//58 225//58 223//58
f 236//86 237//86 239//86 238//86
f 172//61 173//61 175//61 174//61
f 206//58 207//58 209//58 208//58
f 244//61 245//61 247//61 246//61
f 246//1 247//1 249//1 248//1
f 352//87 353//87 355//87 354//87
f 258//88 259//88 261//88 260//88
f 500//89 501//89 499//89 498//89
f 270//90 271//90 273//90 272//90
f 93//91 94//91 92//91 91//91
f 242//58 243//58 245//58 244//58
f 202//5 203//5 205//5 204//5
f 238//92 239//92 241//92 240//92
f 630//93 631//93 633//93 632//93
f 612//94 613//94 615//94 614//94
f 134//95 135//95 137//95 136//95
f 622//96 623//96 625//96 624//96
f 46//97 48//97 47//97 45//97
f 720//90 721//90 723//90 722//90
f 12//98 11//98 24//98 23//98
f 602//99 603//99 605//99 604//99
f 477//100 479//100 478//100 476//100
f 542//101 543//101 545//101 544//101
f 558//102 559//102 561//102 560//102
f 187//103 189//103 188//103 186//103
f 484//104 485//104 487//104 486//104
f 258//6 260//6 262//6 264//6 266//6 268//6 270//6 272//6 223//6 222//6 226//6 228//6 230//6 232//6 234//6 236//6 238//6 240//6 242//6 244//6 246//6 248//6 250//6 252//6 254//6 256//6
f 483//18 475//18 472//18 485//18
f 22//105 9//105 10//105 21//105
f 74//106 76//106 75//106 73//106
f 34//107 36//107 35//107 33//107
f 5//61 6//61 8//61 7//61
f 357//81 359//81 358//81 356//81
f 59//2 60//2 38//2 37//2
f 686//86 687//86 689//86 688//86
f 138//108 139//108 141//108 140//108
f 188//109 189//109 191//109 190//109
f 118//110 119//110 121//110 120//110
f 160//76 161//76 163//76 162//76
f 640//111 641//111 643//111 642//111
f 389//112 388//112 386//112 387//112
f 656//113 657//113 659//113 658//113
f 52//114 54//114 53//114 51//114
f 64//115 66//115 65//115 63//115
f 488//36 489//36 491//36 490//36
f 304//41 305//41 307//41 306//41
f 476//6 480//6 482//6 474//6 471//6 470//6 488//6 490//6 477//6
f 644//116 645//116 647//116 646//116
f 282//6 284//6 286//6 288//6 290//6 292//6 294//6 296//6 298//6 300//6 302//6 304//6 306//6 308//6 310//6 312//6 314//6 316//6 274//6 276//6 278//6 280//6
f 2//2 4//2 3//2 1//2
f 345//112 344//112 342//112 343//112
f 1//117 3//117 6//117 5//117
f 289//118 291//118 290//118 288//118
f 174//58 175//58 177//58 176//58
f 303//18 301//18 299//18 297//18 295//18 293//18 291//18 289//18 287//18 285//18 283//18 281//18 279//18 277//18 275//18 317//18 315//18 313//18 311//18 309//18 307//18 305//18
f 32//119 34//119 33//119 31//119
f 237//18 235//18 233//18 231//18 229//18 227//18 224//18 225//18 273//18 271//18 269//18 267//18 265//18 263//18 261//18 259//18 257//18 255//18 253//18 251//18 249//18 247//18 245//18 243//18 241//18 239//18
f 324//120 325//120 327//120 326//120
f 712//121 713//121 715//121 714//121
f 144//122 145//122 147//122 146//122
f 20//123 22//123 21//123 19//123
f 380//61 381//61 383//61 382//61
f 432//124 433//124 435//124 434//124
f 540//125 541//125 543//125 542//125
f 37//126 38//126 4//126 2//126
f 26//127 28//127 27//127 25//127
f 101//128 100//128 99//128 148//128 149//128
f 336//61 337//61 339//61 338//61
f 318//129 319//129 321//129 320//129
f 28//130 30//130 29//130 27//130
f 332//118 333//118 335//118 334//118
f 384//2 385//2 387//2 386//2
f 364//4 365//4 367//4 366//4
f 40//131 64//131 63//131 42//131
f 340//2 341//2 343//2 342//2
f 18//132 20//132 19//132 17//132
f 300//17 301//17 303//17 302//17
f 310//133 311//133 313//133 312//133
f 358//58 359//58 361//58 360//58
f 348//41 349//41 351//41 350//41
f 77//134 78//134 76//134 74//134
f 314//58 315//58 317//58 316//58
f 426//6 430//6 432//6 434//6 436//6 438//6 440//6 442//6 444//6 446//6 427//6
f 44//82 46//82 45//82 43//82
f 256//63 257//63 259//63 258//63
f 449//6 455//6 454//6 452//6
f 588//135 589//135 587//135 586//135
f 614//6 616//6 618//6 620//6 622//6 624//6 626//6 575//6 574//6 592//6 612//6
f 286//75 287//75 289//75 288//75
f 458//136 459//136 461//136 460//136
f 556//137 557//137 559//137 558//137
f 333//18 331//18 329//18 327//18 325//18 323//18 321//18 319//18 361//18 359//18 357//18 355//18 353//18 351//18 349//18 347//18 345//18 343//18 341//18 339//18 337//18 335//18
f 104//138 105//138 107//138 106//138
f 586//139 587//139 585//139 584//139
f 762//18 764//18 766//18 768//18 770//18 724//18 726//18 728//18 730//18 732//18 734//18 736//18 738//18 740//18 742//18 744//18 746//18 748//18 750//18 752//18 754//18 756//18 758//18 760//18
f 338//1 339//1 341//1 340//1
f 684//9 685//9 687//9 686//9
f 301//112 300//112 298//112 299//112
f 492//140 494//140 517//140 516//140
f 692//58 693//58 695//58 694//58
f 210//58 211//58 213//58 212//58
f 372//141 373//141 375//141 374//141
f 14//13 16//13 15//13 13//13
f 194//142 195//142 197//142 196//142
f 376//118 377//118 379//118 378//118
f 468//61 469//61 457//61 455//61
f 388//17 389//17 391//17 390//17
f 354//133 355//133 357//133 356//133
f 87//143 88//143 86//143 85//143
f 89//8 90//8 88//8 87//8
f 388//6 390//6 392//6 394//6 396//6 398//6 400//6 402//6 404//6 406//6 408//6 362//6 364//6 366//6 368//6 370//6 372//6 374//6 376//6 378//6 380//6 382//6 384//6 386//6
f 218//1 219//1 221//1 220//1
f 704//144 705//144 707//144 706//144
f 406//58 407//58 409//58 408//58
f 474//37 475//37 473//37 471//37
f 416//6 418//6 420//6 422//6 424//6 411//6 410//6 414//6
f 482//2 483//2 485//2 484//2
f 433//18 431//18 428//18 429//18 447//18 445//18 443//18 441//18 439//18 437//18 435//18
f 493//145 495//145 494//145 492//145
f 664//146 665//146 667//146 666//146
f 367//18 365//18 363//18 409//18 407//18 405//18 403//18 401//18 399//18 397//18 395//18 393//18 391//18 389//18 387//18 385//18 383//18 381//18 379//18 377//18 375//18 373//18 371//18 369//18
f 81//147 82//147 80//147 79//147
f 582//148 583//148 581//148 580//148
f 396//87 397//87 399//87 398//87
f 419//18 417//18 415//18 412//18 413//18 425//18 423//18 421//18
f 40//149 42//149 41//149 39//149
f 368//120 369//120 371//120 370//120
f 518//61 520//61 523//61 522//61
f 426//2 428//2 431//2 430//2
f 152//109 153//109 155//109 154//109
f 420//61 421//61 423//61 422//61
f 240//150 241//150 243//150 242//150
f 444//58 445//58 447//58 446//58
f 552//151 553//151 555//151 554//151
f 710//49 711//49 713//49 712//49
f 284//141 285//141 287//141 286//141
f 536//152 537//152 539//152 538//152
f 180//61 181//61 183//61 182//61
f 157//18 155//18 153//18 151//18 185//18 183//18 181//18 179//18 177//18 175//18 173//18 171//18 169//18 167//18 165//18 163//18 161//18 159//18
f 462//104 463//104 465//104 464//104
f 184//2 185//2 151//2 150//2
f 330//75 331//75 333//75 332//75
f 476//2 478//2 481//2 480//2
f 416//2 417//2 419//2 418//2
f 566//6 570//6 572//6 567//6
f 482//6 484//6 486//6 488//6 470//6 474//6
f 471//97 473//97 472//97 470//97
f 489//18 487//18 485//18 472//18 473//18 475//18 483//18 481//18 478//18 479//18 491//18
f 54//153 39//153 41//153 53//153
f 34//6 32//6 30//6 28//6 26//6 37//6 2//6 1//6 5//6 7//6 9//6 22//6 20//6 18//6 16//6 14//6 12//6 23//6 36//6
f 486//2 487//2 489//2 488//2
f 538//154 539//154 541//154 540//154
f 638//155 639//155 641//155 640//155
f 427//1 429//1 428//1 426//1
f 138//6 140//6 142//6 144//6 146//6 148//6 99//6 102//6 95//6 93//6 91//6 89//6 87//6 134//6 136//6
f 158//142 159//142 161//142 160//142
f 120//156 121//156 123//156 122//156
f 512//157 513//157 511//157 510//157
f 604//158 605//158 607//158 606//158
f 334//35 335//35 337//35 336//35
f 578//159 579//159 577//159 575//159
f 566//58 568//58 571//58 570//58
f 454//2 456//2 459//2 458//2
f 534//160 535//160 537//160 536//160
f 282//68 283//68 285//68 284//68
f 594//161 596//161 599//161 598//161
f 290//35 291//35 293//35 292//35
f 725//74 727//74 726//74 724//74
f 466//6 468//6 455//6 449//6 448//6 452//6 454//6 458//6 460//6 462//6 464//6
f 302//77 303//77 305//77 304//77
f 642//162 643//162 645//162 644//162
f 516//163 517//163 515//163 514//163
f 575//164 577//164 576//164 574//164
f 526//165 527//165 529//165 528//165
f 654//166 655//166 657//166 656//166
f 673//61 675//61 674//61 672//61
f 543//18 541//18 539//18 501//18 503//18 505//18 507//18 509//18 511//18 513//18 515//18 520//18 521//18 565//18 563//18 561//18 559//18 557//18 555//18 553//18 551//18 549//18 547//18 545//18
f 722//58 723//58 675//58 673//58
f 573//18 571//18 568//18 569//18
f 506//143 507//143 505//143 504//143
f 496//167 497//167 495//167 493//167
f 572//1 573//1 569//1 567//1
f 280//120 281//120 283//120 282//120
f 216//61 217//61 219//61 218//61
f 508//6 506//6 504//6 502//6 546//6 548//6 550//6 552//6 554//6 556//6 558//6 560//6 562//6 564//6 519//6 518//6 522//6 524//6 526//6 528//6 530//6 532//6 534//6 536//6 538//6 540//6 500//6 498//6 496//6 493//6 492//6 516//6 514//6 512//6 510//6
f 532//168 533//168 535//168 534//168
f 142//169 143//169 145//169 144//169
f 208//61 209//61 211//61 210//61
f 220//2 221//2 187//2 186//2
f 530//170 531//170 533//170 532//170
f 198//56 199//56 201//56 200//56
f 203//18 201//18 199//18 197//18 195//18 193//18 191//18 189//18 187//18 221//18 219//18 217//18 215//18 213//18 211//18 209//18 207//18 205//18
f 418//171 419//171 421//171 420//171
f 598//172 599//172 601//172 600//172
f 502//30 503//30 501//30 500//30
f 146//173 147//173 149//173 148//173
f 70//174 72//174 71//174 69//174
f 390//77 391//77 393//77 392//77
f 360//19 361//19 319//19 318//19
f 729//107 731//107 730//107 728//107
f 570//175 571//175 573//175 572//175
f 114//176 115//176 117//176 116//176
f 737//83 739//83 738//83 736//83
f 755//153 757//153 756//153 754//153
f 128//177 129//177 131//177 130//177
f 136//178 137//178 139//178 138//178
f 678//51 679//51 681//51 680//51
f 608//179 609//179 611//179 610//179
f 652//180 653//180 655//180 654//180
f 668//181 669//181 671//181 670//181
f 542//6 544//6 546//6 502//6 500//6 540//6
f 212//46 213//46 215//46 214//46
f 132//182 133//182 135//182 134//182
f 448//61 450//61 453//61 452//61
f 45//18 47//18 49//18 51//18 53//18 41//18 42//18 63//18 65//18 67//18 69//18 71//18 62//18 38//18 60//18 58//18 56//18 8//18 43//18
f 757//131 759//131 758//131 756//131
f 102//183 103//183 105//183 104//183
f 546//184 547//184 549//184 548//184
f 580//185 581//185 579//185 578//185
f 632//186 633//186 635//186 634//186
f 584//187 585//187 583//187 582//187
f 110//188 111//188 113//188 112//188
f 628//189 629//189 631//189 630//189
f 262//121 263//121 265//121 264//121
f 399//133 401//133 400//133 398//133
f 73//190 75//190 98//190 97//190
f 44//191 43//191 8//191 7//191
f 411//192 413//192 412//192 410//192
f 676//70 677//70 679//70 678//70
f 294//1 295//1 297//1 296//1
f 589//18 591//18 647//18 645//18 643//18 641//18 639//18 637//18 635//18 633//18 631//18 629//18 627//18 625//18 623//18 621//18 619//18 617//18 615//18 613//18 593//18 576//18 577//18 579//18 581//18 583//18 585//18 587//18
f 490//61 491//61 479//61 477//61
f 739//132 741//132 740//132 738//132
f 519//58 521//58 520//58 518//58
f 616//193 617//193 619//193 618//193
f 143//18 141//18 90//18 92//18 94//18 101//18 149//18 147//18 145//18
f 747//97 749//97 748//97 746//97
f 662//194 663//194 665//194 664//194
f 190//67 191//67 193//67 192//67
f 624//195 625//195 627//195 626//195
f 156//196 157//196 159//196 158//196
f 192//196 193//196 195//196 194//196
f 124//197 125//197 127//197 126//197
f 57//198 58//198 60//198 59//198
f 467//18 465//18 463//18 461//18 459//18 456//18 453//18 450//18 451//18 469//18
f 408//19 409//19 363//19 362//19
f 598//6 600//6 602//6 604//6 606//6 608//6 610//6 612//6 592//6 590//6 588//6 586//6 584//6 582//6 580//6 578//6 575//6 626//6 628//6 630//6 632//6 634//6 636//6 638//6 640//6 642//6 644//6 646//6 648//6 650//6 652//6 654//6 656//6 658//6 660//6 662//6 664//6 666//6 668//6 670//6 595//6 594//6
f 480//136 481//136 483//136 482//136
f 68//199 70//199 69//199 67//199
f 230//200 231//200 233//200 232//200
f 250//201 251//201 253//201 252//201
f 753//114 755//114 754//114 752//114
f 274//129 275//129 277//129 276//129
f 296//2 297//2 299//2 298//2
f 66//202 68//202 67//202 65//202
f 700//201 701//201 703//201 702//201
f 106//203 107//203 109//203 108//203
f 48//27 50//27 49//27 47//27
f 690//150 691//150 693//150 692//150
f 708//88 709//88 711//88 710//88
f 460//2 461//2 463//2 462//2
f 50//54 52//54 51//54 49//54
f 122//204 123//204 125//204 124//204
f 308//87 309//87 311//87 310//87
f 449//97 451//97 450//97 448//97
f 694//61 695//61 697//61 696//61
f 680//200 681//200 683//200 682//200
f 524//205 525//205 527//205 526//205
f 108//206 109//206 111//206 110//206
f 455//100 457//100 456//100 454//100
f 523//18 520//18 515//18 517//18 494//18 495//18 497//18 499//18 501//18 539//18 537//18 535//18 533//18 531//18 529//18 527//18 525//18
f 703//18 701//18 699//18 697//18 695//18 693//18 691//18 689//18 687//18 685//18 683//18 681//18 679//18 677//18 674//18 675//18 723//18 721//18 719//18 717//18 715//18 713//18 711//18 709//18 707//18 705//18
f 324//6 326//6 328//6 330//6 332//6 334//6 336//6 338//6 340//6 342//6 344//6 346//6 348//6 350//6 352//6 354//6 356//6 358//6 360//6 318//6 320//6 322//6
f 688//92 689//92 691//92 690//92
f 670//207 671//207 597//207 595//207
f 592//208 593//208 591//208 590//208
f 761//202 763//202 762//202 760//202
f 151//103 153//103 152//103 150//103
f 554//209 555//209 557//209 556//209
f 727//119 729//119 728//119 726//119
f 254//144 255//144 257//144 256//144
f 731//3 733//3 732//3 730//3
f 769//127 771//127 770//127 768//127
f 7//191 8//191 10//191 9//191
f 560//210 561//210 563//210 562//210
f 661//18 659//18 657//18 655//18 653//18 651//18 649//18 647//18 591//18 593//18 613//18 611//18 609//18 607//18 605//18 603//18 601//18 599//18 596//18 597//18 671//18 669//18 667//18 665//18 663//18
f 765//174 767//174 766//174 764//174
f 168//2 169//2 171//2 170//2
f 763//199 765//199 764//199 762//199
f 743//105 745//105 744//105 742//105
f 741//123 743//123 742//123 740//123
f 759//115 761//115 760//115 758//115
f 292//61 293//61 295//61 294//61
f 606//211 607//211 609//211 608//211
f 716//40 717//40 719//40 718//40
f 548//212 549//212 551//212 550//212
f 276//4 277//4 279//4 278//4
f 739//6 737//6 735//6 733//6 731//6 729//6 727//6 725//6 771//6 769//6 767//6 765//6 763//6 761//6 759//6 757//6 755//6 753//6 751//6 749//6 747//6 745//6 743//6 741//6
f 660//213 661//213 663//213 662//213
f 362//129 363//129 365//129 364//129
f 771//130 725//130 724//130 770//130
f 636//214 637//214 639//214 638//214
f 97//215 98//215 96//215 95//215
